#!OML:ASF F:\VICON\USERDATA\INSTALL\rory3\rory3.ASF
:FULLY-SPECIFIED
:DEGREES
188
root 4.14513 17.5547 3.30288 19.8571 -17.0692 -2.51816
lowerback -8.02186 3.98562 3.73542
upperback -10.3694 5.13572 -0.0161421
thorax -6.07093 2.29634 -1.94419
lowerneck -7.72165 8.63001 6.18313
upperneck 28.8384 9.64723 5.46429
head 10.5796 5.71434 2.00223
rclavicle -1.82136e-014 -2.14687e-014
rhumerus 13.81 -24.6715 -5.52835
rradius 117.129
rwrist -58.975
rhand -8.39103 -48.041
rfingers 7.12502
rthumb 17.5326 -77.2704
lclavicle -1.82136e-014 -2.14687e-014
lhumerus 33.746 30.8592 -8.8984
lradius 41.018
lwrist 44.9835
lhand -29.9485 -20.5138
lfingers 7.12502
lthumb -3.26771 9.44095
rfemur -11.005 5.38043 -3.76829
rtibia 14.0931
rfoot -30.4716 -20.9369
rtoes 51.9207
lfemur -26.6019 1.25464 -26.3828
ltibia 22.303
lfoot -13.5292 10.3702
ltoes 11.3172
189
root 4.1514 17.5545 3.29065 19.8783 -17.1508 -2.59035
lowerback -8.23082 3.99631 3.66657
upperback -10.1737 5.14034 0.0716597
thorax -5.75371 2.31678 -1.79083
lowerneck -8.12862 8.45755 5.82421
upperneck 29.2404 9.41349 5.51236
head 10.7816 5.57955 2.08892
rclavicle -1.65488e-014 -1.74931e-014
rhumerus 14.3129 -24.6375 -5.92801
rradius 116.944
rwrist -58.6443
rhand -8.10858 -47.9082
rfingers 7.12502
rthumb 17.8044 -77.1132
lclavicle -1.65488e-014 -1.74931e-014
lhumerus 33.9742 31.1301 -8.30764
lradius 41.2552
lwrist 44.9207
lhand -29.9277 -20.9094
lfingers 7.12502
lthumb -3.24766 9.04556
rfemur -11.0906 5.31744 -3.74343
rtibia 14.0799
rfoot -30.3782 -21.0731
rtoes 51.7652
lfemur -26.7228 1.31682 -26.3503
ltibia 22.45
lfoot -13.4918 10.4545
ltoes 11.1121
190
root 4.16143 17.5533 3.28509 19.8698 -17.2955 -2.59844
lowerback -8.31988 4.02327 3.70686
upperback -9.87359 5.16146 0.0110665
thorax -5.3674 2.33539 -1.8548
lowerneck -9.1182 8.30287 5.53128
upperneck 29.7185 9.13131 5.62132
head 11.1333 5.43608 2.21797
rclavicle 2.55687e-014 3.10104e-014
rhumerus 14.696 -24.8044 -6.41845
rradius 116.789
rwrist -58.451
rhand -8.44316 -47.843
rfingers 7.12502
rthumb 17.4824 -77.0769
lclavicle 2.55687e-014 3.10104e-014
lhumerus 33.9637 31.4506 -8.2276
lradius 41.5698
lwrist 45.0355
lhand -30.5045 -21.5412
lfingers 7.12502
lthumb -3.80469 8.40459
rfemur -11.2324 5.09095 -3.80711
rtibia 14.1959
rfoot -29.717 -21.6363
rtoes 51.3746
lfemur -26.7617 1.35308 -26.4036
ltibia 22.5367
lfoot -13.5185 10.5423
ltoes 11.3284
191
root 4.16984 17.5545 3.26927 19.7782 -17.4807 -2.57442
lowerback -8.10406 4.06747 3.72361
upperback -9.99922 5.23159 -0.0390587
thorax -5.61392 2.36 -1.93456
lowerneck -8.53906 8.14695 5.54065
upperneck 29.8389 8.98542 5.4841
head 11.0728 5.35525 2.12354
rclavicle -3.64024e-014 -2.10712e-014
rhumerus 14.9614 -24.2941 -6.88793
rradius 116.716
rwrist -58.4148
rhand -8.37564 -48.0522
rfingers 7.12502
rthumb 17.5474 -77.2803
lclavicle -3.64024e-014 -2.10712e-014
lhumerus 33.897 30.8488 -8.26561
lradius 42.0545
lwrist 45.3442
lhand -30.6354 -21.6255
lfingers 7.12502
lthumb -3.93106 8.31803
rfemur -11.47 4.9702 -3.85966
rtibia 14.3471
rfoot -27.4762 -24.3015
rtoes 49.6971
lfemur -26.7695 1.40391 -26.4704
ltibia 22.6207
lfoot -13.5574 10.6345
ltoes 11.382
192
root 4.17464 17.5568 3.2422 19.6456 -17.574 -2.64565
lowerback -7.83962 4.08159 3.67051
upperback -9.92783 5.26871 0.0462617
thorax -5.69349 2.3844 -1.83195
lowerneck -8.50331 8.03583 5.47985
upperneck 30.0101 8.92814 5.17278
head 11.1429 5.28682 2.02128
rclavicle -3.57564e-014 -3.3197e-014
rhumerus 15.4361 -24.188 -7.3556
rradius 116.644
rwrist -58.5216
rhand -7.69816 -48.5731
rfingers 7.12502
rthumb 18.1993 -77.7418
lclavicle -3.57564e-014 -3.3197e-014
lhumerus 34.2403 31.0266 -7.4548
lradius 42.3903
lwrist 45.1758
lhand -30.2466 -21.6125
lfingers 7.12502
lthumb -3.55564 8.33761
rfemur -11.6715 4.99038 -3.74218
rtibia 14.4511
rfoot -23.3727 -28.2715
rtoes 46.0947
lfemur -26.7813 1.36024 -26.3568
ltibia 22.7294
lfoot -13.5296 10.7634
ltoes 11.5477
193
root 4.18077 17.5575 3.22524 19.6406 -17.4832 -2.89127
lowerback -7.74971 4.07896 3.86574
upperback -9.81083 5.26531 0.161594
thorax -5.6123 2.37794 -1.82091
lowerneck -8.54836 7.89848 5.25736
upperneck 30.0703 8.82324 4.99345
head 11.1684 5.19347 1.98402
rclavicle -4.47266e-016 -7.15625e-015
rhumerus 15.87 -24.1089 -7.74525
rradius 116.515
rwrist -58.5847
rhand -7.67286 -48.7013
rfingers 7.12502
rthumb 18.2236 -77.8677
lclavicle -4.47266e-016 -7.15625e-015
lhumerus 34.2338 30.9577 -7.19557
lradius 42.8428
lwrist 45.5639
lhand -31.2187 -22.1591
lfingers 7.12502
lthumb -4.49431 7.77324
rfemur -11.7082 4.85316 -3.42462
rtibia 14.5132
rfoot -22.2316 -29.0307
rtoes 45.119
lfemur -26.8337 1.29649 -26.0556
ltibia 22.8405
lfoot -13.5063 10.7891
ltoes 11.7841
194
root 4.19029 17.5563 3.2156 19.6855 -17.3609 -3.07683
lowerback -7.78899 4.07387 4.13357
upperback -9.72398 5.24538 0.18394
thorax -5.47868 2.35619 -1.93852
lowerneck -8.4263 7.70112 5.10398
upperneck 30.0688 8.61565 4.85794
head 11.1398 5.06526 1.9275
rclavicle 2.69105e-014 2.40529e-014
rhumerus 16.1602 -23.8442 -8.14468
rradius 116.313
rwrist -58.4556
rhand -8.07786 -48.2912
rfingers 7.12502
rthumb 17.8339 -77.4935
lclavicle 2.69105e-014 2.40529e-014
lhumerus 34.0947 30.6459 -7.36484
lradius 43.267
lwrist 46.0046
lhand -32.7084 -22.8334
lfingers 7.12502
lthumb -5.93271 7.06354
rfemur -11.6166 4.51875 -3.19868
rtibia 14.4641
rfoot -25.1363 -26.5103
rtoes 48.0708
lfemur -26.9198 1.28864 -25.8723
ltibia 22.9683
lfoot -13.5275 10.7515
ltoes 11.7529
